<?xml version="1.0" encoding="iso-8859-1"?>
<!-- Generator: Adobe Illustrator 16.0.0, SVG Export Plug-In . SVG Version: 6.00 Build 0)  -->
<!DOCTYPE svg PUBLIC "-//W3C//DTD SVG 1.1//EN" "http://www.w3.org/Graphics/SVG/1.1/DTD/svg11.dtd">
<svg version="1.1" id="Capa_1" xmlns="http://www.w3.org/2000/svg" xmlns:xlink="http://www.w3.org/1999/xlink" x="0px" y="0px"
	 width="36.15px" height="36.15px" viewBox="0 0 36.15 36.15" style="enable-background:new 0 0 36.15 36.15;" xml:space="preserve"
	>
<g>
	<g>
		<g>
			<path d="M32.268,29.426H3.882L18.075,0L32.268,29.426z M5.474,28.426h25.201l-12.6-26.124L5.474,28.426z"/>
		</g>
		<g>
			<polygon points="19.341,36.15 18.075,7.038 16.809,36.15 			"/>
		</g>
		<g>
			<g>
				<g>
					<polygon points="18.548,23.26 18.548,25.3 18.744,25.497 24.525,18.395 					"/>
				</g>
				<g>
					<polygon points="18.341,17.853 18.548,19.053 18.618,19.123 22.254,14.657 					"/>
				</g>
				<g>
					<polygon points="18.183,12.886 18.183,13.908 20.648,10.88 					"/>
				</g>
			</g>
			<g>
				<g>
					<polygon points="17.602,23.26 17.602,25.3 17.406,25.497 11.625,18.395 					"/>
				</g>
				<g>
					<polygon points="17.81,17.826 17.602,19.053 17.532,19.123 13.897,14.657 					"/>
				</g>
				<g>
					<polygon points="17.967,12.886 17.967,13.908 15.502,10.88 					"/>
				</g>
			</g>
		</g>
	</g>
</g>
<g>
</g>
<g>
</g>
<g>
</g>
<g>
</g>
<g>
</g>
<g>
</g>
<g>
</g>
<g>
</g>
<g>
</g>
<g>
</g>
<g>
</g>
<g>
</g>
<g>
</g>
<g>
</g>
<g>
</g>
</svg>
